<svg width="395.99999999999994" height="111.4324184668067" viewBox="0 0 369.5483870967742 103.9890669563162" class="looka-1j8o68f"><defs id="SvgjsDefs1290"><linearGradient id="SvgjsLinearGradient1295"><stop id="SvgjsStop1296" stop-color="#2d388a" offset="0"></stop><stop id="SvgjsStop1297" stop-color="#00aeef" offset="1"></stop></linearGradient></defs><g id="SvgjsG1291" featurekey="S6ay6y-0" transform="matrix(0.3096514393917179,0,0,0.3096514393917179,-51.45699982255144,-30.477899820539704)" fill="url(#SvgjsLinearGradient1295)"><g xmlns="http://www.w3.org/2000/svg" fill=""><path d="M292.73 330.28q6.42-6.51 8.35-13.47 2.32-8.37-1.8-16.62-.45-.9.54-1.04 7.46-1.02 14.08-5.47.24-.16.33.12c6.96 21.11-4.31 36.64-19.68 50.35q-.44.39.14.41 1.71.06 3.91-.58c8.92-2.61 20.89-5.6 24.63-14.72q1.49-3.62-.94-7.73a.16.14-26.5 0 1 .08-.2q.05-.02.08-.03.05-.01.11.05 11.62 12.26-.22 24.44-2.69 2.77-9.61 6.14-6.66 3.24-20.82 9.23c-10.1 4.26-19.61 10.48-25.27 20.03q-.25.43-.71.61-7.52 2.96-13.06 8.55-.85.85-.79-.35.34-6.67 4.04-12.86 4.37-7.32 7.68-11.55.1-.13-.01-.21h-.01q-.1-.08-.19.01c-7.33 7.34-13.42 17.18-14.07 27.53q-.19 3.06-1.08 5.15-1.7 4.01-2.32 9.47-.23 1.96-.63.03c-3.57-17.4-1.16-33.79 9.96-47.89q6.83-8.66 7.75-9.96 5.73-8.1 9.7-17.81c4.74-11.59 1.47-26.32-8.45-33.9q-9.22-7.05-12.88-10.1-16.55-13.8-16.95-35.31-.02-1.35.67-.19c1.65 2.79 3.53 5.67 5.49 8 7.09 8.42 14.76 15.93 23.44 22.53 4.36 3.32 8.56 5.92 11.16 9.6q1.54 2.18.64-.34c-2.42-6.82-6.99-11.98-12.01-17.08q-4.15-4.22-5.49-6.63c-3.87-7.01-1.88-13.94 0-21.71 2.55-10.49-5.76-25.26-12.13-33.32-1.79-2.27-3.83-3.94-6.83-4.6q-9.46-2.08-19.36-3.55-.52-.07-.89.29-12.68 12.36-15.73 31.46-1.06 6.66 1.62 11.73c2.1 3.97-1.85 10.38-3.86 12.84q-3.39 4.13-8.68 8.5c-3.45 2.84-.75 6.83 2.51 7.89q3.93 1.27 6.31 2.53a1.76 1.38 46.8 0 1 .27 2.94l-.39.09q-.54.13-.64.68-.51 2.76-3.08 4.33a1.35 1.35 0 0 0-.06 2.26q6.02 4.15 11.51 6.31.32.12.3.47-.01.16-.06.27-.12.23-.38.23-5.13.04-8.65 3.26a1.41 1.41 0 0 0 .6 2.4c2.15.57 6.06 1.85 4.8 4.95q-1.64 3.99-1.71 4.17c-1.96 5.04 1.08 12.71 7.67 10.69 4.6-1.42 9.3-3.49 14.97-5.17q12.43-3.69 17.59-5.68c4.61-1.77 15.25-6.86 14.35-13.23q-.3-2.11-1.1-3.91-.49-1.12.54-.45c5.46 3.53 10.08 7.7 12.8 13.81q6.32 14.2-2.63 27.92-6.37 9.78-13.49 18.45a.37.36-31.6 0 1-.64-.15c-1.63-7.58-4.23-16.21-8.62-22.81q-6.23-9.38-17.42-7.4-11.92 2.1-13.71 2.37c-13.54 2.03-15.32-8.01-13.77-18.5a1.19 1.17 29.9 0 0-.26-.93q-.65-.79-2.31-2.61c-2.42-2.65-.65-4.32-.09-7.08q.09-.44-.2-.79c-1.58-1.93-4.25-5.49-3.48-7.69.85-2.43 2.14-5.24.62-6.83-4.48-4.68-11.4-8.62-4.11-15.49 5.33-5.02 11.05-10.2 9.78-17.93q-1.01-6.09-.59-9.3 1.72-13.26 7.71-25.57a.19.19 0 0 0-.19-.28q-7.92.82-14.34-3.02-8.37-5-15.16-12.71c-5.46-6.2-8.33-16.95-2.55-23.86q1.07-1.28.88.38c-1.03 9.31-.12 16.68 7.23 23 7.2 6.19 18.2 10.12 27.08 5.07a.24.24 0 0 0-.01-.42q-11.32-5.7-17.05-17.28c-6.98-14.13-11.34-32.47-9.84-48.58q.21-2.26.75-.05c1.46 6 3.78 13.58 5.29 18.1 5.28 15.87 17.72 30.37 34.23 35.33q1.88.56.35-.67c-4.39-3.54-7.51-7.64-10.73-12.56q-8.65-13.24-5.71-29.1c1.55-8.33 9.99-10.83 18.8-15.33 7.53-3.85 9.73-9.72 12.42-17.14 2.58-7.07 6.49-12.47 12.78-16.72q1.4-.94.62.55-2.29 4.44-2.7 9.18-.5 5.84-1.58 8.91c-1.21 3.43-4.67 5.73-7.89 8.02a.08.08 0 0 0 .08.14q5.52-2.31 8.32-6.65c.62-.96.96-2.53 1.53-3.63a1.33 1.31 2.9 0 1 .7-.62q8.84-3.38 13.36-11.46a.18.12-54.8 0 1 .23-.09h.01q.1.12.07.21-4.36 11.3-12.35 19.86c-4.73 5.07-13.43 8.35-17.93 10.61q-10.62 5.34-13.38 17.47-3.95 17.39 10.16 28.23.42.31.53-.19.64-2.79 1.73-8.48c1.4-7.29-2.32-11.56-4.47-17.54q-1.48-4.1-.47-8.61.99-4.37 1.11.11c.15 5.82 3.04 8.87 6.45 13.67q.3.42.46-.06.35-1.03 1.08-3.19 3.36-10 12.77-14.02.31-.14.46.16.09.17.08.29-.01.1-.11.2-8.11 7.99-10.09 18.67c-.68 3.66-.08 8.78-.18 12.92q-.02 1 .67.28 2.26-2.36 3.41-6.03.62-1.99.86.08c.69 6.1-1.22 9.5-4.53 14.28a3.01 2.96 60.1 0 0-.52 1.98q.77 8.17 7.87 11.81.46.23.57-.28 1.28-6.36 4.37-13.17 2.2-4.86 2.56-10.91.05-.88.45-.1 1.84 3.7 1.44 7.53-.07.72.42.19c5.74-6.21 10.25-11.74 10.29-20.53.04-7.26-.51-14.39 2.48-21.06q3.34-7.46 10.54-10.43 1.39-.58.37.53-7.69 8.29-8.83 20.81c-.89 9.84-1.25 19.33-6.65 27.77q-3.17 4.95-6.34 10.18c-4.31 7.1-8.33 25.56 1.9 30.86a.79.79 0 0 0 1.15-.69c.14-10.24.57-18.34 8.81-25.66q1.28-1.13.9.53-2.68 11.56-3.04 23.34c-.25 8.26 3.31 17.62 7.01 26.19.39.91.87 2.78.88 3.93.09 8.1.37 15.75 2.54 23.42q.5 1.78 1.21.07 4.25-10.29-.22-20.66-4.73-10.96-8.51-22.09-.4-1.19.57-.4c14.51 11.79 25.82 23.59 26.9 43.01.09 1.66.16 2.77-.97 3.99q-3.03 3.27-6.02 7.24-4.94 6.54-.56 13.73 4.87 8 5.08 8.34c6.59 10.67 1.91 19.84-4.81 28.7q-.3.41.05.05M233.5 202.04q-9.16-1.7-18.83-4.68c-10.12-3.12-15.52-11.6-19.93-20.46q-.06-.11-.17-.06h-.01q-.11.05-.05.19c2.72 7.1 7.49 15.41 14.15 19.28q3.98 2.32 9.26 3.32 11.55 2.19 15.33 2.49.18.01.24.01a.05.05 0 0 0 .01-.09"></path><path d="M216.72 135.91q1.45-3.36 1.94-5.82c1.39-7.09-3.45-15.64-.76-23.16q.1-.27.39-.34.37-.08.35.21-.39 4.64 1.51 9.08c3.1 7.3 7.79 16.63-3.33 20.14a.08.08 0 0 1-.1-.11M194.58 163.88c-2.27-3.93-3.31-7.15-2.63-11.96q1.63-11.49 11.9-17.67 2-1.21.6.66c-3.97 5.27-7.24 11.32-7.72 17.1q-.47 5.68-1.51 11.75-.16.95-.64.12M263.12 164.13c-1.02-3.03-4.44-6.42-5.78-9.18q-3.91-8.06-.5-16.9.08-.2.27-.17.05.01.11.05.11.06.09.19-.34 3.24-.26 5.66c.21 6 3.86 8.94 8.48 14.51 2.23 2.69.5 7.66-1.31 10.26q-.35.5-.42-.11-.39-3.43-.68-4.31M328.87 198.42l1.31-2.93q1.64-3.7 1.94.34.4 5.32-1.61 14.34a.98.98 0 0 1-.63.71l-6.37 2.3a.48.47 81.4 0 1-.63-.47c.43-9.04-1.38-15.01-4.45-24.37-4.07-12.4 3.41-22.24 15.15-25.4q1.66-.44.31.62c-7.45 5.93-12.73 15.18-9.9 25q1.06 3.68 4.31 9.88.3.58.57-.02"></path><path d="M316.2 237.41q1.07-7.03 1.8-14.11.53-5.15 4-7.89.71-.56 6.17-2.8c10.58-4.33 16.06-14.93 16.97-26.01q.05-.59.34-6.05.09-1.51.66-.11c3.89 9.48 3.26 21.68-4.33 29.15q-3.97 3.92-9.72 7.46c-3.92 2.41-4.65 8.24-5.26 13.53q-.68 5.96 1.39 10.89.47 1.13.76-.06 1.18-4.9 4.5-7.91 1.22-1.1.73.47c-2.23 7.06-1.55 13.05-1.22 19.38a.31.31 0 0 0 .5.23c9.04-6.9 10.43-19.89 7.6-30.11q-.42-1.49.53-.27.7.9 1.4 2.58c6.82 16.35.22 32.9-13.43 43.06q-5.28 3.94-11.46 7.02-9.08 4.54-20.47 7.78-.09.03-.06.13l.09.25q.07.19.27.15c11.07-2.53 22.19-6.71 31.11-13.6q.98-.76.63.43c-4.19 14.5-16.13 25.18-31.47 26.46q-.73.07-1.2-.49c-3.94-4.72-6.49-10.82-2.01-16.44 6.84-8.56 13.11-15.03 15.7-25.06.58-2.23.98-5.68-.67-7.93-5.35-7.3-14.48-12.39-20.29-19.63-11.28-14.03-12.49-30.97-8.13-47.93q.08-.31.4-.26l.24.05q.03 0 .01.18-2.1 23.1 14.8 38.31 1.35 1.21.64-.45-2.03-4.78-.97-10.78c1.4-7.95 9.24-13.42 10.89-21.93q1.75-9.09-5.02-15.23-2-1.82.37-.52c12.72 6.98 8.6 19.84 3.93 30.6q-1.1 2.54-1.64 6.82c-1.07 8.42 5.05 13.32 10.74 18.1a1.43 1.42-71 0 1 .51 1.05q.14 5.84-.74 11.41a.3.04 45.9 0 0 .16.21h.01q.18.2.24-.13M166.6 195.22q4.67 3.74 9.16 5.24c2.56.85 3.68 1.06 5.23 2.72q1.84 1.99 4.42 4.3 1.1.98-.36.76-9.7-1.47-16.14-8.62-1.9-2.1-2.65-4.15-.27-.73.34-.25M238.33 238.74q-.69.41-1.25.36-.62-.05-.41-.64c.61-1.74 2.71-6.94 4.48-7.76q3.6-1.66 5.57-1.48 1.56.14.22.94l-1.85 1.09q-.47.28-.37.82c.53 2.83 1.19 6.34 4.76 6.67a1.14 1.13-69.6 0 1 .82 1.79q-2.02 2.79-4.03.58a1.47 1.47 0 0 0-2.31.17c-5.48 8.17-2.28 15.15 3.91 21.45q.02.02.02.04l-.01.25q-.01.23-.19.09-11.46-9.14-8.85-24.03.12-.72-.51-.34M211.89 239.99c-1.58.98-2.59 2.39-4.27 4.28q-1.18 1.33-1.95-.27-.69-1.46-.73-2.94-.05-1.85 1.5-2.86 7.31-4.78 14.61-.83.39.21.39.55 0 .09-.07.25-.06.12-.19.1-5.44-.66-9.29 1.72M211.15 260.66q-.47-1.01-2.07-1.16a.27.25-4.8 0 1-.22-.17l-.16-.42q-.08-.25.17-.21 1.53.25 2.02-.08 1.75-1.2.5-2.79-1.26-1.6.58-.74c3.92 1.83 8.16.4 12.45-1.17q1.45-.53.54.72c-2.16 2.97-4.74 3.41-8.08 4.45-2.1.66-3.32 2.24-5.93 2.37q-.83.04-.29-.39.06-.04.38-.16.19-.06.11-.25M325 345.15c3.18-4.32 3.82-7.91 4.23-13.15q.04-.49.35-.88c7.78-9.68 18.26-22.44 13.35-35.67q-.34-.91.34-.22c4.34 4.43 5.14 13.71 4.15 19.51-2.21 13-11.09 23.46-21.98 30.7q-.25.16-.33.07-.04-.05-.07-.1-.09-.19-.04-.26M261.2 426.74c1.18 3.66 3.59 4.42 6.16 6.73q1.48 1.33-.42.4c-13.78-6.7-19.45-18.19-17.04-33.24 1.27-7.95 7.72-13.84 14.6-17.33q1.25-.64.58.6c-7.2 13.37-8.45 28.68-3.88 42.84"></path></g></g><g id="SvgjsG1292" featurekey="j5pGhi-0" transform="matrix(2.2449094324387406,0,0,2.2449094324387406,72.11967402676143,24.80586223381659)" fill="#111111"><path d="M1.7285 4.941000000000001 l1.4551 0 l0 6.0742 l7.373 0 l0 -6.0742 l1.4453 0 l0 14.482 l-1.4453 0 l0 -6.9824 l-7.373 0 l0 6.9824 l-1.4551 0 l0 -14.482 z M24.287234375 15.6348 l1.1523 0.61523 q-0.556640625 1.123046875 -1.30859375 1.806640625 t-1.6895 1.04 t-2.1191 0.35645 q-2.6171875 0 -4.091796875 -1.713867188 t-1.4746 -3.8721 q0 -2.041015625 1.25 -3.6328125 q1.58203125 -2.03125 4.248046875 -2.03125 q2.724609375 0 4.365234375 2.080078125 q1.162109375 1.46484375 1.171875 3.65234375 l-9.6191 0 q0.0390625 1.875 1.19140625 3.071289063 t2.8418 1.1963 q0.8203125 0 1.591796875 -0.2880859375 t1.3135 -0.75684 t1.1768 -1.5234 z M24.287234375 12.7539 q-0.2734375 -1.103515625 -0.80078125 -1.762695313 t-1.3965 -1.0645 t-1.8262 -0.40527 q-1.572265625 0 -2.705078125 1.015625 q-0.8203125 0.7421875 -1.240234375 2.216796875 l7.9688 0 z M33.417971875 8.203 q2.470703125 0 4.1015625 1.787109375 q1.50390625 1.630859375 1.50390625 3.876953125 q0.01953125 5.546875 0 5.634765625 l-1.4551 0 l0 -2.4316 q-1.142578125 2.12890625 -4.150390625 2.3828125 q-2.4609375 0 -4.018554688 -1.674804688 t-1.5576 -3.9111 q0 -2.2265625 1.474609375 -3.8671875 q1.630859375 -1.796875 4.1015625 -1.796875 z M33.417971875 9.551 q-1.708984375 0 -2.939453125 1.26953125 t-1.2305 3.0664 q0 1.162109375 0.6298828125 2.236328125 t2.1338 1.8164 q3.76953125 0.83984375 5.361328125 -3.427734375 q0.087890625 -1.3671875 -0.29296875 -2.6171875 q-0.2734375 -0.56640625 -0.751953125 -1.07421875 q-1.201171875 -1.26953125 -2.91015625 -1.26953125 z M41.484415625 4.59 l1.3867 0 l0 14.854 l-1.3867 0 l0 -14.854 z M49.580053125 17.9297 q-1.015625 0.546875 -1.9921875 0.087890625 q-1.19140625 -0.908203125 -1.1328125 -2.587890625 l0 -4.5313 l2.5391 0 l0 -1.1816 l-2.5488 0 l0 -5.1758 l-1.3867 0 l0 11.123 q-0.01953125 1.171875 0.537109375 2.1484375 q0.91796875 1.552734375 2.5 1.640625 q0.83984375 0.029296875 1.9140625 -0.380859375 q-0.166015625 -0.41015625 -0.4296875 -1.142578125 z M52.197228125 4.609 l1.3867 0 l0 6.0645 q0.830078125 -1.103515625 1.831054688 -1.650390625 t2.1729 -0.54688 q1.2109375 0 2.138671875 0.6103515625 t1.3672 1.6357 t0.43945 3.2324 l0 5.5078 l-1.3672 0 l0 -5.1074 q0 -1.85546875 -0.15625 -2.48046875 q-0.25390625 -1.064453125 -0.927734375 -1.596679688 t-1.7676 -0.53223 q-1.25 0 -2.241210938 0.8251953125 t-1.3037 2.0459 q-0.185546875 0.78125 -0.185546875 2.919921875 l0 3.9258 l-1.3867 0 l0 -14.854 z M64.677753125 4.901999999999999 l2.8809 0 q2.490234375 0 3.349609375 0.21484375 q1.25 0.3125 2.03125 1.259765625 t0.78125 2.3926 q0 1.435546875 -0.7666015625 2.377929688 t-2.1143 1.2646 q-0.986328125 0.234375 -3.681640625 0.234375 l-1.0352 0 l0 6.7383 l-1.4453 0 l0 -14.482 z M66.123053125 6.308999999999999 l0 4.9219 l2.4609 0.029297 q1.474609375 0 2.163085938 -0.2685546875 t1.084 -0.87891 t0.39551 -1.3428 q0 -0.7421875 -0.3955078125 -1.34765625 t-1.04 -0.85938 t-2.1094 -0.25391 l-2.5586 0 z M81.43555 8.203 q2.470703125 0 4.1015625 1.787109375 q1.50390625 1.630859375 1.50390625 3.876953125 q0.01953125 5.546875 0 5.634765625 l-1.4551 0 l0 -2.4316 q-1.142578125 2.12890625 -4.150390625 2.3828125 q-2.4609375 0 -4.018554688 -1.674804688 t-1.5576 -3.9111 q0 -2.2265625 1.474609375 -3.8671875 q1.630859375 -1.796875 4.1015625 -1.796875 z M81.43555 9.551 q-1.708984375 0 -2.939453125 1.26953125 t-1.2305 3.0664 q0 1.162109375 0.6298828125 2.236328125 t2.1338 1.8164 q3.76953125 0.83984375 5.361328125 -3.427734375 q0.087890625 -1.3671875 -0.29296875 -2.6171875 q-0.2734375 -0.56640625 -0.751953125 -1.07421875 q-1.201171875 -1.26953125 -2.91015625 -1.26953125 z M89.18949375 14.541 l0 -1.2891 q0.15625 -0.966796875 0.44921875 -1.572265625 q0.68359375 -1.6796875 1.8359375 -2.4609375 t1.9141 -0.78125 q0.56640625 0 1.2109375 0.37109375 l-0.71289 1.1523 q-0.908203125 -0.33203125 -1.801757813 0.537109375 t-1.2354 1.8945 q-0.25390625 0.908203125 -0.25390625 3.408203125 l0 3.623 l-1.4063 0 l0 -4.8828 z M99.62888125 17.9297 q-1.015625 0.546875 -1.9921875 0.087890625 q-1.19140625 -0.908203125 -1.1328125 -2.587890625 l0 -4.5313 l2.5391 0 l0 -1.1816 l-2.5488 0 l0 -5.1758 l-1.3867 0 l0 11.123 q-0.01953125 1.171875 0.537109375 2.1484375 q0.91796875 1.552734375 2.5 1.640625 q0.83984375 0.029296875 1.9140625 -0.380859375 q-0.166015625 -0.41015625 -0.4296875 -1.142578125 z M102.24605625 15.3809 l-0.019531 -1.1426 q-0.029296875 -0.83984375 0.068359375 -1.42578125 q0.21484375 -1.845703125 0.9375 -2.705078125 q0.703125 -0.751953125 1.435546875 -1.162109375 q1.2109375 -0.517578125 2.763671875 -0.48828125 q1.2109375 0 2.241210938 0.6103515625 t1.4697 1.6406 t0.43945 3.2275 l0 5.5078 l-1.3672 0 l0 -5.1074 q0 -1.85546875 -0.15625 -2.48046875 q-0.244140625 -1.064453125 -0.966796875 -1.508789063 t-2.1387 -0.44434 q-1.25 0 -2.2265625 0.72265625 t-0.9082 1.9727 q-0.185546875 0.80078125 -0.185546875 2.919921875 l0 3.9258 l-1.3867 0 l0 -4.0625 z M123.53528125 15.6348 l1.1523 0.61523 q-0.556640625 1.123046875 -1.30859375 1.806640625 t-1.6895 1.04 t-2.1191 0.35645 q-2.6171875 0 -4.091796875 -1.713867188 t-1.4746 -3.8721 q0 -2.041015625 1.25 -3.6328125 q1.58203125 -2.03125 4.248046875 -2.03125 q2.724609375 0 4.365234375 2.080078125 q1.162109375 1.46484375 1.171875 3.65234375 l-9.6191 0 q0.0390625 1.875 1.19140625 3.071289063 t2.8418 1.1963 q0.8203125 0 1.591796875 -0.2880859375 t1.3135 -0.75684 t1.1768 -1.5234 z M123.53528125 12.7539 q-0.2734375 -1.103515625 -0.80078125 -1.762695313 t-1.3965 -1.0645 t-1.8262 -0.40527 q-1.572265625 0 -2.705078125 1.015625 q-0.8203125 0.7421875 -1.240234375 2.216796875 l7.9688 0 z M127.08011875 14.541 l0 -1.2891 q0.15625 -0.966796875 0.44921875 -1.572265625 q0.68359375 -1.6796875 1.8359375 -2.4609375 t1.9141 -0.78125 q0.56640625 0 1.2109375 0.37109375 l-0.71289 1.1523 q-0.908203125 -0.33203125 -1.801757813 0.537109375 t-1.2354 1.8945 q-0.25390625 0.908203125 -0.25390625 3.408203125 l0 3.623 l-1.4063 0 l0 -4.8828 z"></path></g></svg>